# xmcd CD database file
#
# Track frame offsets:
#	150
#	22692
#	45519
#	63627
#	86169
#
# Disc length: 1450 seconds
#
# Revision: 1
# Processed by: cddbd v1.5.1PL0 Copyright (c) Steve Scherf et al.
# Submitted via: CDex 1.51
#
DISCID=3505a805
DTITLE=タッキー&翼 - 愛想曲(セレナーデ)
DYEAR=2004
DGENRE=JPop
TTITLE0=愛想曲(セレナーデ)
TTITLE1=Starry Sky
TTITLE2=queen of R
TTITLE3=愛想曲(セレナーデ) 〜karaoke〜
TTITLE4=Starry Sky 〜karaoke〜
EXTD=YEAR: 2004
EXTT0=
EXTT1=
EXTT2=
EXTT3=
EXTT4=
PLAYORDER=
